<?xml version="1.0" encoding="UTF-8"?>
<svg id="svg52" width="2100" height="1200" version="1.1" xmlns="http://www.w3.org/2000/svg" xmlns:xlink="http://www.w3.org/1999/xlink">
 <rect id="rect1" width="2100" height="1200" fill="#007e3c" style="stroke-width:1.87083"/>
 <rect id="rect2" width="2100" height="800" fill="#df1a23" style="stroke-width:1.87083"/>
 <rect id="rect3" width="2100" height="400" fill="#ffffff" style="stroke-width:1.87083"/>
 <rect id="rect4" width="700" height="1200" fill="#df1a23" style="stroke-width:1.87083"/>
 <g id="g64" transform="matrix(2.01151 0 0 2.0091 -52.3012 -26.9918)">
  <g id="a" transform="translate(50)" fill="#ffffff" fill-rule="evenodd" stroke="#db161b" stroke-width=".352">
   <rect id="rect5" x="65.854" y="102.64" width="38.669" height="21.217" rx="3.215" ry="3.015" stroke-width=".378"/>
   <rect id="rect6" x="66.846" y="103.52" width="36.686" height="19.449" rx="3.05" ry="2.764"/>
   <path id="path6" d="m83.904 108.83 1.853 0.06 0.084 0.84 1.516 0.77 1.18-0.96 1.431 0.77-1.347 0.84 0.337 1.16 1.684-0.06v1.55l-1.347-0.07-0.674 0.97 1.516 1.1-1.179 0.9-1.264-0.97-1.853 0.39 0.084 1.42-2.021 0.13-0.253-1.36-1.684-0.71-0.927 0.97-1.432-0.71 0.843-1.1-1.011-0.71h-1.432l-0.084-2 1.432 0.13 1.01-1.16-1.179-0.9 1.516-1.04 1.095 0.84 1.853-0.25z" stroke-width=".222"/>
   <ellipse id="ellipse6" transform="matrix(.18418 0 0 .1752 71.766 38.246)" cx="68.944" cy="426.78" rx="11.049" ry="9.944" stroke-width="1.333"/>
   <path id="path7" d="m71.803 104.41-2.974 2.65m4.957-2.65-2.974 2.65m4.957-2.65-2.974 2.65m4.957-2.65-2.974 2.65m4.957-2.65-2.974 2.65m4.957-2.65-2.974 2.65m4.958-2.65-2.975 2.65m4.958-2.65-2.975 2.65m4.958-2.65-2.975 2.65m4.958-2.65-2.975 2.65m4.958-2.65-2.975 2.65m4.958-2.65-2.975 2.65m-4.957-2.65-2.975 2.65m12.89-2.65-2.975 2.65m4.958-2.65-2.975 2.65m4.958-2.65-2.975 2.65m4.959-2.65-2.976 2.65m0-2.65 2.976 2.65m-4.959-2.65 2.975 2.65m-4.958-2.65 2.975 2.65m-4.958-2.65 2.975 2.65m-4.958-2.65 2.975 2.65m-4.958-2.65 2.975 2.65m-4.958-2.65 2.975 2.65m-4.958-2.65 2.975 2.65m-4.958-2.65 2.975 2.65m-4.958-2.65 2.975 2.65m-4.958-2.65 2.975 2.65m-4.958-2.65 2.974 2.65m4.958-2.65 2.975 2.65m-12.89-2.65 2.974 2.65m-4.957-2.65 2.974 2.65m-4.957-2.65 2.974 2.65m-4.957-2.65 2.974 2.65m0 12.37-2.974 2.66m4.957-2.66-2.974 2.66m4.957-2.66-2.974 2.66m4.957-2.66-2.974 2.66m4.957-2.66-2.974 2.66m4.957-2.66-2.974 2.66m4.958-2.66-2.975 2.66m4.958-2.66-2.975 2.66m4.958-2.66-2.975 2.66m4.958-2.66-2.975 2.66m4.958-2.66-2.975 2.66m4.958-2.66-2.975 2.66m-4.957-2.66-2.975 2.66m12.89-2.66-2.975 2.66m4.958-2.66-2.975 2.66m4.958-2.66-2.975 2.66m4.959-2.66-2.976 2.66m0-2.66 2.976 2.66m-4.959-2.66 2.975 2.66m-4.958-2.66 2.975 2.66m-4.958-2.66 2.975 2.66m-4.958-2.66 2.975 2.66m-4.958-2.66 2.975 2.66m-4.958-2.66 2.975 2.66m-4.958-2.66 2.975 2.66m-4.958-2.66 2.975 2.66m-4.958-2.66 2.975 2.66m-4.958-2.66 2.975 2.66m-4.958-2.66 2.974 2.66m4.958-2.66 2.975 2.66m-12.89-2.66 2.974 2.66m-4.957-2.66 2.974 2.66m-4.957-2.66 2.974 2.66m-4.957-2.66 2.974 2.66"/>
  </g>
  <use id="use7" transform="matrix(-1,0,0,1,400,0)" width="100%" height="100%" xlink:href="#a"/>
  <g id="b" transform="translate(50)" stroke="#db161b">
   <path id="path8" d="m126.51 147.12c-48.114 47.05-68.638 53-59.006 56.79s40.616-20.49 72.856-52.75c32.24-32.25 51.98-60.956 42.35-64.747-9.63-3.792-5.03 10.662-56.2 60.707z" fill="#ffffff" fill-rule="evenodd" stroke-width=".565"/>
   <path id="path9" d="m86.008 181.31 16.852 4.42c-15.861 15.03-33.708 21.22-38.665 18.57-4.958-2.65 8.923-8.84 21.813-22.99z" fill="#ffffff" fill-rule="evenodd" stroke-width=".33"/>
   <path id="path10" d="m86.008 183.08 13.881 3.54c-15.453 14.45-30.737 18.56-34.692 16.8-3.977-1.77 8.255-6.74 20.811-20.34z" fill="#ffffff" fill-rule="evenodd" stroke-width=".33"/>
   <path id="path11" d="m137.79 145.06c-0.04 0.23-0.15 1.24-0.25 1.64 0 0.56-0.06 0.98-0.12 1.42-0.16 0.38-0.13 0.73-0.62 0.87-0.33 0.46-0.54 0.58-0.98 0.77-0.3 0.23-0.76 0.46-1.24 0.65-0.49 0.19-0.94 0.21-1.47 0.11-0.44-0.27-0.75-0.54-1.11-0.76-0.09-0.35-0.16-0.86-0.25-1.2 0.13 0.35 0.23 0.91 0.25 1.41-0.05 0.55-0.25 0.79-0.49 1.2m1.72 1.2c-0.04-0.03-0.08-0.07-0.12-0.11 0.29 0.26 0.17 0.14-0.5-0.21-0.47-0.22-0.98-0.34-1.6-0.44h-1.72c-0.67 0-1.12 0.09-1.6 0.22-0.35 0.31-0.87 0.48-1.23 0.76-0.38 0.23-0.54 0.5-0.74 0.87-0.34 0.3-0.56 0.76-0.87 0.99-0.13 0.5-0.42 0.48-0.61 0.87 0.58 0.04 1.05 0.11 1.35 0.43 0.52 0.24-0.43-0.23-0.61-0.43-0.41-0.11-0.51-0.22-1.11-0.22-0.56-0.16-0.9 0.13-1.48 0.22-0.33 0.17-0.43 0.22-0.86 0.22m5.05 2.29c-0.25 0.01-1.4 0.2-1.85 0-0.5-0.12-0.8-0.36-1.11-0.77-0.15-0.29 0 0.53 0 0.88-0.05 0.64-0.27 0.65-0.61 1.09-0.36 0.2-0.74 0.49-1.11 0.65-0.31 0.24-0.69 0.4-1.11 0.55-0.37 0.15-0.81 0.31-1.11 0.54-0.41 0.26-0.37 0.58-0.61 0.98 0.04 0.54 0.14 0.84 0.49 1.1 0.14 0.36 0.47 0.73 0.74 0.98 0.3 0.5 0.64 0.73-0.13 0.87-0.42 0.16-0.65 0.03-1.1 0m-0.25 0.76c-0.3-0.06-1.38-0.38-1.85-0.54h-1.72c-0.67 0.04-0.8 0.22-1.36 0.43-0.36 0.33-0.61 0.56-1.11 0.77-0.26 0.3-0.78 0.81-0.98 1.2-0.15 0.37-0.25 0.87-0.25 1.42 0.01 0.63 0.2 0.74 0.25 1.31 0.14 0.46 0.36 0.89 0.74 1.3 0.05 0.14 0.09 0.18 0.24 0.22m0.17 1.43c-0.05 0-0.17 0.28-0.35 0.52-0.39 0.4-0.44 0.43-1.05 0.43-0.54-0.02-0.49-0.21-0.87-0.35-0.18-0.27-0.41-0.49-0.61-0.86-0.14-0.22-0.27-0.57-0.44-0.77-0.16-0.26-0.36-0.45-0.53-0.69-0.16-0.07-0.22-0.14-0.43-0.17 0.5 0.08 0.54 0.25 0.87 0.51 0.15 0.25 0.31 0.5 0.44 0.78 0.05 0.37 0.17 0.66 0.17 1.12 0 0.47 0 0.81-0.17 1.2-0.21 0.22-0.36 0.44-0.61 0.61-0.21 0.19-0.46 0.45-0.62 0.68-0.27 0.17-0.47 0.31-0.78 0.52-0.27 0.15-0.55 0.31-0.96 0.35-0.52-0.04-0.67-0.18-1.05-0.35-0.33-0.24-0.59-0.39-0.88-0.6-0.23-0.16-0.46-0.47-0.61-0.69-0.47-0.12-0.77-0.07-1.05 0.17-0.24 0.16-0.45 0.37-0.61 0.6-0.15 0.07-0.38 0.28-0.53 0.35m1.04 0.2c0.14 0.06 0.64 0.41 0.87 0.54 0.14 0.45 0.36 0.7 0.43 1.18 0.12 0.47 0.11 0.98 0.11 1.51-0.12 0.55-0.35 0.95-0.54 1.39-0.35 0.24-0.52 0.4-0.98 0.65-0.43 0.06-0.86 0.11-1.41 0.11-0.34 0.11-0.98 0.16-1.31 0-0.48-0.07-0.843-0.26-1.194-0.43-0.402-0.23-0.649-0.44-1.088-0.65-0.213-0.31-0.544-0.59-0.869-0.97-0.271-0.36-0.47-0.56-0.653-0.96 0.161 0.46 0.405 0.86 0.544 1.29 0.247 0.45 0.391 0.62 0.435 1.18 0.151 0.45 0.109 0.99 0.109 1.5-0.048 0.35-0.073 1.01-0.218 1.29v0.33m-10.314 1.71v0.16c0-0.42-0.011-0.21 0.175 0.62 0.33 0.37 1.104 0.47 1.749 0.31 0.566-0.41 0.548-0.73 1.574-0.93 0.991 0.06 1.369 0.32 1.924 0.62 0.658 0.29 0.962 0.44 1.399 1.09 0.217 0.53 0.338 0.89-0.35 1.09-0.547 0.35-1.197 0.54-1.924 0.63-0.808 0-1.39-0.09-1.749 0.31-0.555 0.51-0.524 0.82-0.524 1.71-0.187 0.28-0.224 1.1-0.35 1.41-0.486 0.2-0.771 0.31-1.574 0.31-0.189-0.48-0.398-1.35-0.525-1.87-0.137-0.56-0.179-1.34-0.525-1.72a4.51 4.51 0 0 0-1.224-1.09c-0.214-0.27-0.622-0.49-1.049-0.62 0.686 0.31 0.784 0.65 0.874 1.4-0.603 0.27-0.764 0.46-1.749 0.47-0.968-0.07-1.202-0.29-1.574-0.78-0.067 0.78-0.348 1.04-0.524 1.72-0.36 0.47-0.513 0.95-0.875 1.55 0.154 0.76 0.486 0.79 0.525 1.72 0.227 0.61 0.202 1.19 0.699 1.56 0.222 0.24 0.388 0.29 0.875 0.31-1.013 0-1.603-0.1-2.274-0.47-0.519-0.28-0.911-0.64-1.399-0.93-0.619-0.4-1.384-0.77-2.099-0.94-0.808 0-1.39-0.08-1.749 0.31-0.495 0.32-0.828 0.86-1.049 1.56-0.162 0.81-0.224 1.35 0.175 1.87 0.296 0.61 0.363 0.84 0 1.56-0.407 0.51-1.012 0.57-1.924 0.78a6.678 6.678 0 0 1-1.749-0.31" fill="none" stroke-width=".33"/>
   <path id="path12" d="m181.41 104.66c21.35-36.858 35.52-68.222 31.62-70.014-3.89-1.791-24.37 26.665-45.72 63.518z" fill="#ffffff" fill-rule="evenodd" stroke-width=".447"/>
   <path id="path13" d="m180 104.01c20.59-35.557 34.78-65.574 31.67-67.007s-22.35 26.258-42.95 61.81" fill="#ffffff" fill-rule="evenodd" stroke-width=".393"/>
   <path id="path14" d="m176.46 85.461c-2.51 4.157-5.16 8.908-7.74 13.352l11.28 5.197c2.57-4.448 5.38-9.13 7.73-13.356z" fill="#ffffff" fill-rule="evenodd" stroke-width=".446"/>
   <path id="path15" d="m177.41 86.895c-2.5 4.157-4.25 7.338-6.82 11.782l8.45 3.893c2.58-4.442 4.48-7.554 6.83-11.78z" fill="#ffffff" fill-rule="evenodd" stroke-width=".446"/>
   <path id="path16" transform="matrix(-.90832 -.41827 -.50125 .8653 0 0)" d="m-205.69 6.558h6.207v9.985h-6.207z" fill="#ffffff" stroke-width=".447"/>
   <path id="path17" d="m183.55 91.712-10.64 6.043m5.63 2.595-0.63-11.235m31.12-41.388-5.64-2.597" fill="#ffffff" fill-rule="evenodd" stroke-width=".446"/>
   <circle id="circle17" transform="matrix(-.449 .1132 .10134 .39387 444.347 -55.798)" cx="545.67" cy="92.126" r="3.543" fill="#db161b" stroke-width="1.333"/>
  </g>
  <use id="use17" transform="matrix(-1,0,0,1,400,0)" width="100%" height="100%" xlink:href="#b"/>
  <path id="path18" d="m185.26 84.958c0 30.942 0.18 42.602-2.1 44.202-2.16 1.71-62.348 0-62.348 8.84s49.578 17.68 64.448 17.68c19.83 0 29.75-8.84 29.75-26.52v-44.202z" fill="#ffffff" fill-rule="evenodd" stroke="#db161b" stroke-width=".407"/>
  <path id="path19" d="m185.26 93.798v4.42a100.628 100.628 0 0 0 29.75 0v-4.42a100.628 100.628 0 0 1-29.75 0zm0-8.84v4.42a100.695 100.695 0 0 0 29.75 0v-4.42a100.695 100.695 0 0 1-29.75 0z" fill="#ffffff" fill-rule="evenodd" stroke="#db161b" stroke-width=".352"/>
  <path id="path20" d="m185.26 89.378v4.42a100.628 100.628 0 0 0 29.75 0v-4.42a100.695 100.695 0 0 1-29.75 0zm0 8.84v4.422c9.92 1.47 19.83 1.47 29.75 0v-4.422a100.628 100.628 0 0 1-29.75 0z" fill="#ffffff" fill-rule="evenodd" stroke="#db161b" stroke-width=".352"/>
  <ellipse id="ellipse20" cx="186.612" cy="91.8906" rx="1.352" ry=".953511" fill="#ffffff" stroke="#db161b" stroke-width=".330273"/>
  <ellipse id="ellipse21" cx="192.02" cy="92.3658" rx="1.352" ry=".953511" fill="#ffffff" stroke="#db161b" stroke-width=".330273"/>
  <ellipse id="ellipse22" cx="197.429" cy="92.8436" rx="1.352" ry=".953511" fill="#ffffff" stroke="#db161b" stroke-width=".330273"/>
  <ellipse id="ellipse23" cx="202.837" cy="92.8436" rx="1.352" ry=".953511" fill="#ffffff" stroke="#db161b" stroke-width=".330273"/>
  <ellipse id="ellipse24" cx="208.244" cy="92.3658" rx="1.352" ry=".953511" fill="#ffffff" stroke="#db161b" stroke-width=".330273"/>
  <ellipse id="ellipse25" cx="213.654" cy="91.8906" rx="1.352" ry=".953511" fill="#ffffff" stroke="#db161b" stroke-width=".330273"/>
  <g id="g25" transform="translate(50)" fill="#ffffff" fill-rule="evenodd" stroke="#db161b" stroke-width=".352">
   <path id="path25" d="m135.26 107.06 29.75 23.87m-26.78-23.87 26.78 21.21m-22.81-20.33 22.81 17.68m-19.83-17.68 19.83 15.03m-16.86-15.03 16.86 12.38m-13.89-12.38 13.89 9.73m-10.91-9.73 10.91 7.07m-7.94-7.07 7.94 5.31m-4.96-5.31 4.96 3.54m-1.99-3.54 1.99 1.77m-29.75 0 29.75 23.87m0-26.52-32.72 26.52m29.74-26.52-28.75 22.98m24.79-22.1-22.81 17.68m19.83-17.68-19.83 15.03m16.86-15.03-16.86 12.38m13.88-12.38-13.88 9.73m10.91-9.73-10.91 7.07m7.93-7.07-7.93 5.31m4.96-5.31-4.96 3.54m1.98-3.54-1.98 1.77m29.75 0-32.72 26.52m32.72-23.87-32.72 26.52m32.72-23.87-32.72 26.53m32.72-23.87-32.72 26.52m32.72-23.87-32.72 26.52m32.72-23.87-32.72 26.52m32.72-23.87-32.72 26.52m32.72-23.86-32.72 26.52m32.72-23.87-30.74 24.75m30.74-22.1-27.77 22.1m26.77-18.56-21.81 17.68m20.82-14.15-17.84 14.15m15.86-9.73-8.92 7.07m-16.86-39.78 28.75 22.99m-28.75-20.34 28.75 22.99m-28.75-20.33 27.76 22.1m-27.76-19.45 27.76 22.1m-27.76-19.45 26.77 21.22m-27.76-19.45 26.77 21.22m-26.77-18.57 24.79 19.45m-25.78-17.68 24.79 19.45m-25.78-17.68 23.79 18.56m-23.79-15.91 22.8 17.68m-22.8-15.03 19.83 15.91"/>
  </g>
  <path id="path26" d="m185.26 102.64v4.42c9.92 1.47 19.83 1.47 29.75 0v-4.42c-9.92 1.47-19.83 1.47-29.75 0zm-2.97 36.24 17.84 14.15m-17.84-11.49 15.86 12.37m-15.86-9.72 13.88 10.61m-13.88-7.96 9.91 7.96m-9.91-5.31 7.93 6.19m-7.93-3.54 4.95 3.54" fill="#ffffff" fill-rule="evenodd" stroke="#db161b" stroke-width=".352"/>
  <ellipse id="ellipse26" cx="186.612" cy="105.151" rx="1.352" ry=".953511" fill="#ffffff" stroke="#db161b" stroke-width=".330273"/>
  <ellipse id="ellipse27" cx="192.02" cy="105.627" rx="1.352" ry=".953511" fill="#ffffff" stroke="#db161b" stroke-width=".330273"/>
  <ellipse id="ellipse28" cx="197.429" cy="106.104" rx="1.352" ry=".953511" fill="#ffffff" stroke="#db161b" stroke-width=".330273"/>
  <ellipse id="ellipse29" cx="202.837" cy="106.104" rx="1.352" ry=".953511" fill="#ffffff" stroke="#db161b" stroke-width=".330273"/>
  <ellipse id="ellipse30" cx="208.244" cy="105.627" rx="1.352" ry=".953511" fill="#ffffff" stroke="#db161b" stroke-width=".330273"/>
  <ellipse id="ellipse31" cx="213.654" cy="105.151" rx="1.352" ry=".953511" fill="#ffffff" stroke="#db161b" stroke-width=".330273"/>
  <g id="g31" transform="translate(50)" fill="#ffffff" fill-rule="evenodd" stroke="#db161b" stroke-width=".352">
   <path id="path31" d="m92.625 148.61 35.695-18.57m-37.678 17.68 33.708-17.68m-34.699 15.92 30.739-15.92m-31.731 14.15 26.771-14.15m-28.754 12.38 24.784-12.38m-23.792 9.73 16.852-8.84m-17.844 7.07 12.89-7.07m-12.89 4.42 8.924-4.42m0 18.56 33.71-17.68m-30.736 18.57 31.726-16.8m-28.75 17.68 29.74-15.91m-26.77 16.79 24.79-13.26m-20.82 13.26 21.81-11.49m-18.84 12.38 18.84-9.73m-15.86 10.61 14.87-7.95m-10.91 7.95 11.9-6.19m-7.93 7.08 7.93-4.42m-3.96 4.42 4.95-2.66"/>
  </g>
  <path id="path32" d="m183.28 129.16h-4.96a71.66 71.66 0 0 0 0 26.52h4.96a71.236 71.236 0 0 1 0-26.52zm-58.502 12.38 11.898-8.84m-11.898 2.65 11.898 10.61" fill="#ffffff" fill-rule="evenodd" stroke="#db161b" stroke-width=".352"/>
  <path id="path33" d="m142.625 130.93-5.949 0.88c-1.322 5.6-1.322 10.31 0 15.91l5.949 1.77c-1.322-5.6-1.322-12.96 0-18.56z" fill="#ffffff" fill-rule="evenodd" stroke="#db161b" stroke-width=".251"/>
  <path id="path34" d="m214.97 86.726v-4.457c-4.45 0.037-7.43-2.615-7.43-5.305l-14.85 0.037c0 2.653-2.97 5.305-7.43 5.305v4.42z" fill="#ffffff" fill-rule="evenodd" stroke="#db161b" stroke-width=".431"/>
  <path id="path35" d="m193.75 71.697h12.734v5.304h-12.734zm1.06-5.304h10.612v5.304h-10.612zm0-5.304h10.612v5.304h-10.612z" fill="#ffffff" stroke="#db161b" stroke-width=".364"/>
  <path id="path36" d="m195.87 54.017h8.489v7.072h-8.489z" fill="#ffffff" stroke="#db161b" stroke-width=".364"/>
  <path id="path37" d="m195.51 47.829h9.221v6.188h-9.221z" fill="#ffffff" stroke="#db161b" stroke-width=".38"/>
  <ellipse id="ellipse37" cx="200.63" cy="42.0844" rx="12.2951" ry="8.39842" fill="#ffffff" stroke="#db161b" stroke-width=".358042"/>
  <path id="path38" d="m206.78 41.64c0 2.319 3.07 6.189 3.07 6.189-2.23 1.52-5.83 2.652-9.22 2.652s-7.62-0.631-9.22-2.652c0 0 3.07-3.87 3.07-6.189 0-2.318-3.07-5.304-3.07-5.304 2.22-1.52 5.83-2.652 9.22-2.652s6.99 1.132 9.22 2.652c0 0-3.07 2.986-3.07 5.304z" fill="#ffffff" fill-rule="evenodd" stroke="#db161b" stroke-width=".358"/>
  <path id="path39" d="m204.73 41.64c0 2.319 3.07 7.073 3.07 7.073-2.22 1.52-3.78 1.768-7.17 1.768s-5.57 0.253-7.17-1.768c0 0 3.07-4.754 3.07-7.073 0-2.318-3.07-6.188-3.07-6.188 2.22-1.52 3.78-1.768 7.17-1.768s4.95 0.248 7.17 1.768c0 0-3.07 3.87-3.07 6.188z" fill="#ffffff" fill-rule="evenodd" stroke="#db161b" stroke-width=".358"/>
  <ellipse id="circle39" cx="188.334" cy="42.5267" rx="3.07377" ry="2.65218" fill="#ffffff" stroke="#db161b" stroke-width=".358042"/>
  <ellipse id="circle40" cx="212.924" cy="42.5267" rx="3.07377" ry="2.65218" fill="#ffffff" stroke="#db161b" stroke-width=".358042"/>
  <ellipse id="circle41" cx="200.63" cy="42.5267" rx="3.07377" ry="2.65218" fill="#ffffff" stroke="#db161b" stroke-width=".358042"/>
  <ellipse id="circle42" cx="200.63" cy="33.6867" rx="3.07377" ry="2.65218" fill="#ffffff" stroke="#db161b" stroke-width=".358042"/>
  <ellipse id="circle43" cx="191.627" cy="84.0757" rx="3.18347" ry="2.65218" fill="#ffffff" stroke="#db161b" stroke-width=".364376"/>
  <ellipse id="circle44" cx="208.605" cy="84.0757" rx="3.18347" ry="2.65218" fill="#ffffff" stroke="#db161b" stroke-width=".364376"/>
  <path id="path44" d="m192.69 77.001h14.85l-7.42 7.957z" fill="#ffffff" fill-rule="evenodd" stroke="#db161b" stroke-width=".364"/>
  <ellipse id="circle45" cx="200.116" cy="83.1912" rx="4.24466" ry="3.53618" fill="#ffffff" stroke="#db161b" stroke-width=".485831"/>
  <rect id="rect45" x="183.77" y="109.72" width="22.805" height="5.304" rx="1.238" ry=".938" fill="#ffffff" stroke="#db161b" stroke-width=".33"/>
  <path id="path45" d="m213.52 105.3c-2.75 0-4.96 2.06-4.96 4.62v4.02c0 2.56 2.21 4.62 4.96 4.62s4.96-2.06 4.96-4.62v-4.02c0-2.56-2.21-4.62-4.96-4.62zm0 1.77c-1.65 0-2.98 1.65-2.98 3.7v2.33c0 2.05 1.33 3.69 2.98 3.69s2.97-1.64 2.97-3.69v-2.33c0-2.05-1.32-3.7-2.97-3.7zm-25.78-0.88c-1.65 0-2.97 1.64-2.97 3.69v4.1c0 2.05 1.32 3.7 2.97 3.7s2.97-1.65 2.97-3.7v-4.1c0-2.05-1.32-3.69-2.97-3.69zm0-1.77c-2.75 0-4.96 2.06-4.96 4.62v5.79c0 2.56 2.21 4.62 4.96 4.62s4.96-2.06 4.96-4.62v-5.79c0-2.56-2.21-4.62-4.96-4.62z" fill="#ffffff" fill-rule="evenodd" stroke="#db161b" stroke-width=".33"/>
  <path id="path46" d="m179.81 107.95c-1.65 0-2.98 1.65-2.98 3.7v0.96c0 2.05 1.33 3.7 2.98 3.7s2.97-1.65 2.97-3.7v-0.96c0-2.05-1.32-3.7-2.97-3.7zm0-1.76c-2.75 0-4.96 2.06-4.96 4.62v2.65c0 2.56 2.21 4.62 4.96 4.62 2.74 0 4.96-2.06 4.96-4.62v-2.65c0-2.56-2.22-4.62-4.96-4.62z" fill="#ffffff" fill-rule="evenodd" stroke="#db161b" stroke-width=".33"/>
  <path id="path47" d="m167.91 105.51c-2.97 0-5.35 1.84-5.35 4.13v4.58c0 2.29 2.38 4.13 5.35 4.13s5.35-1.84 5.35-4.13v-4.58c0-2.29-2.38-4.13-5.35-4.13zm0-1.98c-4.94 0-8.92 2.31-8.92 5.17v6.47c0 2.86 3.98 5.16 8.92 5.16s8.92-2.3 8.92-5.16v-6.47c0-2.86-3.98-5.17-8.92-5.17zm64.45 2.86c-2.97 0-5.36 1.85-5.36 4.14v4.58c0 2.29 2.39 4.13 5.36 4.13 2.96 0 5.35-1.84 5.35-4.13v-4.58c0-2.29-2.39-4.14-5.35-4.14zm0-1.97c-4.95 0-8.93 2.3-8.93 5.16v6.47c0 2.86 3.98 5.16 8.93 5.16 4.94 0 8.92-2.3 8.92-5.16v-6.47c0-2.86-3.98-5.16-8.92-5.16z" fill="#ffffff" fill-rule="evenodd" stroke="#db161b" stroke-width=".33"/>
  <rect id="rect47" x="215.5" y="109.72" width="11.898" height="5.304" rx=".646" ry=".938" fill="#ffffff" stroke="#db161b" stroke-width=".33"/>
  <rect id="rect48" x="204.6" y="108.84" width="6.941" height="7.072" rx=".377" ry="1.251" fill="#ffffff" stroke="#db161b" stroke-width=".33"/>
  <rect id="rect49" x="171.88" y="108.84" width="6.941" height="7.072" rx=".377" ry="1.251" fill="#ffffff" stroke="#db161b" stroke-width=".33"/>
  <rect id="rect50" x="150.06" y="107.95" width="13.881" height="8.84" rx=".753" ry="1.563" fill="#ffffff" stroke="#db161b" stroke-width=".33"/>
  <rect id="rect51" x="236.32" y="108.84" width="12.89" height="8.84" rx=".7" ry="1.563" fill="#ffffff" stroke="#db161b" stroke-width=".33"/>
 </g>
</svg>
