<svg width="40" height="39" viewBox="0 0 40 39" fill="none" xmlns="http://www.w3.org/2000/svg">
<path d="M1.3125 23.3125H38.6875" stroke="#3A8BFF" stroke-width="2" stroke-miterlimit="10" stroke-linecap="round" stroke-linejoin="round"/>
<path d="M9.9375 37.6875H30.0625" stroke="#3A8BFF" stroke-width="2" stroke-miterlimit="10" stroke-linecap="round" stroke-linejoin="round"/>
<path d="M15.6876 29.0625C15.6876 32.0812 14.6813 35.675 13.1001 37.6875" stroke="#3A8BFF" stroke-width="2" stroke-miterlimit="10" stroke-linecap="round" stroke-linejoin="round"/>
<path d="M1.3125 4.625V26.1875C1.3125 27.7688 2.60625 29.0625 4.1875 29.0625H35.8125C37.3938 29.0625 38.6875 27.7688 38.6875 26.1875V4.625C38.6875 3.04375 37.3938 1.75 35.8125 1.75H4.1875C2.60625 1.75 1.3125 3.04375 1.3125 4.625Z" stroke="#3A8BFF" stroke-width="2.2" stroke-miterlimit="10" stroke-linecap="round" stroke-linejoin="round"/>
<path d="M26.9 37.6875C25.3187 35.675 24.3125 32.0812 24.3125 29.0625" stroke="#3A8BFF" stroke-width="2.2" stroke-miterlimit="10" stroke-linecap="round" stroke-linejoin="round"/>
<path d="M28.625 19H11.375C10.5125 19 9.9375 18.425 9.9375 17.5625V7.5C9.9375 6.6375 10.5125 6.0625 11.375 6.0625H28.625C29.4875 6.0625 30.0625 6.6375 30.0625 7.5V17.5625C30.0625 18.425 29.4875 19 28.625 19Z" stroke="#3A8BFF" stroke-width="2.2" stroke-miterlimit="10" stroke-linecap="round" stroke-linejoin="round"/>
<path d="M9.9375 10.375H30.0625" stroke="#3A8BFF" stroke-width="2.2" stroke-miterlimit="10" stroke-linecap="round" stroke-linejoin="round"/>
<path d="M25.75 14.6875H22.875" stroke="#3A8BFF" stroke-width="2.2" stroke-miterlimit="10" stroke-linecap="round" stroke-linejoin="round"/>
</svg>
