<svg width="40" height="32" viewBox="0 0 40 32" fill="none" xmlns="http://www.w3.org/2000/svg">
<path d="M24.1667 20.1667H30.4167M24.1667 11.8334H30.4167M13.75 10.7917V8.70841M13.75 10.7917H17.9169M13.75 10.7917C10.0024 10.7917 9.58719 11.6922 9.58354 13.5678C9.57987 15.4434 9.58352 16.0001 13.7502 16.0001C17.9169 16.0001 17.9169 16.4282 17.9169 18.4307C17.9169 19.9355 17.9169 21.2084 13.7502 21.2084M13.7502 21.2084L13.75 23.2917M13.7502 21.2084H9.58354M7.91667 30.5834H32.0833C34.4169 30.5834 35.5838 30.5834 36.475 30.1292C37.259 29.7299 37.8965 29.0924 38.2958 28.3084C38.75 27.4172 38.75 26.2503 38.75 23.9167V8.08341C38.75 5.74987 38.75 4.58308 38.2958 3.69179C37.8965 2.90777 37.259 2.27035 36.475 1.87089C35.5838 1.41675 34.4169 1.41675 32.0833 1.41675H7.91667C5.58312 1.41675 4.41633 1.41675 3.52504 1.87089C2.74102 2.27035 2.1036 2.90777 1.70415 3.69179C1.25 4.58308 1.25 5.74985 1.25 8.08341V23.9167C1.25 26.2503 1.25 27.4172 1.70415 28.3084C2.1036 29.0924 2.74102 29.7299 3.52504 30.1292C4.41633 30.5834 5.5831 30.5834 7.91667 30.5834Z" stroke="#3A8BFF" stroke-width="2.2" stroke-linecap="round" stroke-linejoin="round"/>
</svg>
