<svg width="36" height="36" viewBox="0 0 36 36" fill="none" xmlns="http://www.w3.org/2000/svg">
<path d="M35.5605 24.4872C35.2792 24.206 34.8977 24.048 34.5 24.048C34.1023 24.048 33.7208 24.206 33.4395 24.4872L24.999 32.9294L20.967 28.9498C20.6885 28.6644 20.3081 28.5012 19.9093 28.4963C19.5106 28.4914 19.1262 28.6451 18.8408 28.9236C18.5553 29.202 18.3922 29.5825 18.3873 29.9813C18.3823 30.38 18.536 30.7644 18.8145 31.0499L22.9305 35.1C23.1887 35.3783 23.5005 35.6016 23.8472 35.7562C24.194 35.9109 24.5684 35.9938 24.948 36H24.9975C25.3696 36.0012 25.7382 35.9285 26.082 35.7861C26.4257 35.6437 26.7378 35.4345 27 35.1705L35.5605 26.6083C35.8417 26.327 35.9997 25.9455 35.9997 25.5477C35.9997 25.15 35.8417 24.7685 35.5605 24.4872ZM16.635 32.9384C13.7386 32.6737 10.9815 31.5727 8.69959 29.7693C6.41763 27.9659 4.70918 25.5379 3.78221 22.781C2.85524 20.0241 2.74975 17.0572 3.47858 14.2414C4.20741 11.4256 5.73912 8.88248 7.88724 6.92156C10.0354 4.96064 12.7072 3.66655 15.5775 3.19682C18.4479 2.72709 21.3928 3.10199 24.0539 4.27588C26.715 5.44977 28.9775 7.37201 30.5658 9.80859C32.1541 12.2452 32.9999 15.091 33 17.9995C33 18.4601 32.9775 18.9161 32.9385 19.3661C32.9201 19.5627 32.9408 19.7611 32.9993 19.9498C33.0578 20.1384 33.153 20.3137 33.2794 20.4655C33.4058 20.6173 33.561 20.7426 33.7359 20.8342C33.9109 20.9259 34.1023 20.9821 34.299 20.9996C34.4956 21.0194 34.6942 20.9997 34.8831 20.9417C35.072 20.8837 35.2474 20.7885 35.399 20.6618C35.5506 20.535 35.6753 20.3793 35.7659 20.2036C35.8565 20.028 35.9111 19.8361 35.9265 19.6391C35.9745 19.0946 36 18.5501 36 17.9995C35.9998 14.5091 34.9849 11.094 33.0787 8.17009C31.1726 5.24613 28.4575 2.93945 25.264 1.53086C22.0705 0.122282 18.5364 -0.327428 15.0919 0.236485C11.6474 0.800399 8.4412 2.35361 5.86356 4.70701C3.28593 7.06042 1.4481 10.1125 0.573826 13.4916C-0.300445 16.8708 -0.173442 20.4312 0.939375 23.7395C2.05219 27.0478 4.10281 29.9611 6.84158 32.1249C9.58034 34.2886 12.8891 35.6094 16.365 35.9265C16.4115 35.9265 16.4565 35.9265 16.5015 35.9265C16.8993 35.9442 17.2879 35.8031 17.5817 35.5343C17.8755 35.2655 18.0505 34.891 18.0683 34.4932C18.086 34.0954 17.9449 33.7068 17.6761 33.413C17.4073 33.1191 17.0328 32.9441 16.635 32.9264V32.9384ZM16.5 10.4994V17.3785L12.4395 21.4391C12.2962 21.5775 12.182 21.743 12.1033 21.926C12.0247 22.109 11.9834 22.3059 11.9816 22.5051C11.9799 22.7042 12.0178 22.9017 12.0933 23.0861C12.1687 23.2704 12.2801 23.4379 12.4209 23.5788C12.5617 23.7196 12.7292 23.831 12.9136 23.9064C13.0979 23.9818 13.2954 24.0198 13.4946 24.0181C13.6938 24.0163 13.8906 23.975 14.0736 23.8963C14.2566 23.8177 14.4221 23.7034 14.5605 23.5602L19.0605 19.0601C19.3418 18.7788 19.4999 18.3973 19.5 17.9995V10.4994C19.5 10.1015 19.342 9.71998 19.0607 9.43867C18.7794 9.15736 18.3978 8.99932 18 8.99932C17.6022 8.99932 17.2206 9.15736 16.9393 9.43867C16.658 9.71998 16.5 10.1015 16.5 10.4994Z" fill="#3A8BFF"/>
</svg>
