<svg width="205" height="30" viewBox="0 0 205 30" fill="none" xmlns="http://www.w3.org/2000/svg">
<path d="M195.695 12.5969C192.028 11.34 190.406 10.5018 190.406 8.61526C190.406 7.42817 191.182 5.61222 194.849 5.61222C198.305 5.61222 201.972 7.14906 201.972 7.14906V1.9097C200.42 1.28084 197.67 0.652832 194.567 0.652832C189.278 0.652832 184.2 3.44653 184.2 8.96415C184.2 14.4818 189.278 16.0186 192.734 17.1359C195.978 18.1834 198.164 19.231 198.164 21.3269C198.164 23.1428 196.895 24.5401 192.734 24.5401C189.207 24.5401 184.976 23.1428 184.976 23.1428V28.3813C184.976 28.3813 189.066 29.4987 193.015 29.4987C198.234 29.4987 204.37 27.6827 204.37 20.9074C204.37 16.2977 200.562 14.2716 195.695 12.596V12.5969Z" fill="#000835"/>
<path d="M62.76 29.1498V0.652832H54.791L46.9628 21.886L39.1356 0.652832H31.1665V29.1498H36.5966V7.63751L44.4952 29.1498H49.079L57.3299 7.63751V29.1498H62.76Z" fill="#000835"/>
<path d="M81.8017 0.652832H71.2937V6.17045C76.3011 5.96112 77.711 5.89134 79.8977 5.89134C83.3534 5.89134 85.3983 7.14821 85.3983 10.501V12.6658H79.8977C70.6596 12.6658 67.8389 16.3675 67.8389 21.1873C67.8389 27.4036 72.4931 29.4987 77.1474 29.4987C81.8017 29.4987 84.6224 27.3338 85.5392 26.705V29.1498H91.6043V9.66279C91.6043 3.09764 88.0077 0.652832 81.8017 0.652832ZM85.3983 23.0731C83.8466 23.6321 81.0258 24.6099 78.346 24.6099C75.8071 24.6099 73.7622 23.4926 73.7622 20.7687C73.7622 18.3239 75.3139 17.067 78.6991 16.9274L85.3983 16.6483V23.0739V23.0731Z" fill="#000835"/>
<path d="M134.763 5.54245H149.292V0.652832H128.557V29.1498H149.292V24.261H134.763V17.3461H147.105V12.5263H134.763V5.54245Z" fill="#000835"/>
<path d="M179.193 29.1498V0.652832H172.846V22.3753C171.294 23.0739 169.108 24.1912 165.934 24.1912C161.986 24.1912 160.786 22.0264 160.786 17.4159V0.652832H154.439V18.1843C154.439 25.5179 156.837 29.4995 164.383 29.4995C168.614 29.4995 170.73 27.9627 172.987 26.7058V29.1506H179.193V29.1498Z" fill="#000835"/>
<path d="M109.306 0.652832H97.8809V29.1498H109.306C118.967 29.1498 123.833 24.7495 123.833 14.6222C123.833 5.75178 118.544 0.652832 109.306 0.652832ZM109.023 24.1912H104.228V5.61222H109.023C113.819 5.61222 117.345 7.91747 117.345 14.6222C117.345 21.3269 115.018 24.1912 109.023 24.1912Z" fill="#000835"/>
<path d="M14.3824 0.652832H3.87439V6.17045C8.88179 5.96112 10.2917 5.89134 12.4784 5.89134C15.9341 5.89134 17.979 7.14821 17.979 10.501V12.6658H12.4784C3.23945 12.6667 0.418701 16.3684 0.418701 21.1873C0.418701 27.4036 5.07297 29.4987 9.72724 29.4987C14.3815 29.4987 17.2031 27.3338 18.1199 26.705V29.1498H24.185V9.66279C24.185 3.09764 20.5884 0.652832 14.3824 0.652832ZM17.979 23.0731C16.4273 23.6321 13.6065 24.6099 10.9267 24.6099C8.38775 24.6099 6.34286 23.4926 6.34286 20.7687C6.34286 18.3239 7.89458 17.067 11.2798 16.9274L17.9798 16.6483V23.0739L17.979 23.0731Z" fill="#000835"/>
</svg>
